<?xml version="1.0" encoding="UTF-8"?>
<svg width="343px" height="186px" viewBox="0 0 343 186" version="1.1" xmlns="http://www.w3.org/2000/svg" xmlns:xlink="http://www.w3.org/1999/xlink">
    <!-- Generator: Sketch 51.3 (57544) - http://www.bohemiancoding.com/sketch -->
    <title>插画</title>
    <desc>Created with Sketch.</desc>
    <defs>
        <linearGradient x1="86.3561259%" y1="130.823557%" x2="21.7663907%" y2="44.05896%" id="linearGradient-1">
            <stop stop-color="#1DE9B6" offset="0%"></stop>
            <stop stop-color="#03BFEE" offset="100%"></stop>
        </linearGradient>
    </defs>
    <g id="确定稿" stroke="none" stroke-width="1" fill="none" fill-rule="evenodd">
        <g id="35-促进方案_全部促进方案" transform="translate(-16.000000, -72.000000)">
            <g id="插画" transform="translate(16.000000, 72.000000)">
                <rect id="Rectangle-2" fill="#E1EEFB" x="0" y="0" width="343" height="186" rx="8"></rect>
                <g id="切换刷新" transform="translate(28.000000, 10.000000)" fill="#FFFFFF" opacity="0.331473214">
                    <path d="M0,98.6818182 C38.4305058,118.594048 66.8039997,141.366775 85.1204819,167 C66.0664047,148.855389 40.5621833,132.062323 25.5759706,124.363263 C15.5851621,119.230556 7.05983857,110.670075 0,98.6818182 Z M106.646153,0 C111.938173,4.86823666 124.389801,15.4211857 122.81523,23.6298288 C121.634158,32.6987729 110.18529,41.7045607 80.6897075,63.5738636 C57.6876972,81.2679396 32.0448335,110.606949 54.4006203,127.147727 C37.5683469,111.864322 23.2512167,98.2557123 24.6902291,84.2011029 C24.3596734,58.473952 99.2821641,11.8419602 106.646153,0 Z M140.694346,34.1590909 C145.986366,39.0273276 158.437994,49.5802766 156.863423,57.7889197 C155.682351,66.8578638 144.233482,75.8636516 114.7379,97.7329545 C91.73589,115.427031 66.0930263,144.76604 88.4488131,161.306818 C71.6165396,146.023413 57.2994095,132.414803 58.7384219,118.360194 C58.4078661,92.6330429 133.330357,46.0010511 140.694346,34.1590909 Z" id="Combined-Shape" style="mix-blend-mode: soft-light;"></path>
                </g>
                <text id="健康总评-copy" font-family="PingFangSC-Medium, PingFang SC" font-size="18" font-weight="400" fill="#0BCCDD">
                    <tspan x="32.5" y="51">健康总评</tspan>
                </text>
                <g transform="translate(183.000000, 27.000000)" id="医生">
                    <g>
                        <path d="M55.2005329,52.360011 C48.4760538,57.2234926 44.03184,64.1923187 41.8678917,73.2664892 C39.7039433,82.3406597 37.256991,93.3242342 34.5270347,106.217213 L21.2810058,82.4701366 L13.5955054,89.7294047 C22.5108914,112.777707 29.8096204,124.632803 35.4916926,125.294692 C41.1737647,125.956582 45.2209219,115.507061 47.6331642,93.9461295" id="Path-6" stroke="#BDDFF7" fill="#FFFFFF"></path>
                        <path d="M42.0329952,73.578114 C40.548202,82.0754531 40.3250548,88.4998928 41.3635538,92.8514331 C42.9213022,99.3787435 43.4081049,112.237615 43.1253255,114.586504 C42.8425461,116.935393 45.8698362,90.7888822 45.5642384,87.011537 C45.3605066,84.4933068 44.1834255,80.0154991 42.0329952,73.578114 Z" id="Path-13" fill="#E7F5FF"></path>
                        <path d="M44.9183847,59.7722241 C42.1192859,57.9949448 40.9095606,55.4161632 41.289209,52.0358793 C41.8586815,46.9654534 48.430031,38.3340068 48.1095512,36.0427886 C47.7890715,33.7515704 40.911782,29.288481 41.289209,24.283181 C41.666636,19.277881 53.7639893,0.0251659804 63.9066585,0.0690880635 C68.828557,1.31506164 71.6222034,2.41775835 72.2875977,3.37717819 C73.3962517,2.9769319 74.5672043,2.8140668 75.8004556,2.88858288 C82.0367856,4.11022261 90.6306713,17.5652227 89.5211086,27.1199417 C88.4115459,36.6746608 87.3974001,35.4630171 88.5218054,40.9614561 C89.6462108,46.4598951 95.9464549,49.4120649 96.6352744,55.7813727 C97.3240938,62.1506806 68.8783354,73.890599 58.2855406,67.9559683 C51.2236774,63.9995479 46.7679588,61.2716331 44.9183847,59.7722241 Z" id="Path-2" fill="#002F7C"></path>
                        <path d="M69.6676753,8.87078381 C71.2159291,5.52552288 72.0732281,3.70071024 72.2395725,3.39634589 C72.035143,3.04345581 69.055867,7.67527507 68.9127934,7.49114565 C67.6463019,5.86122637 65.9584059,5.25263357 63.8491054,5.66536726 C59.7885845,6.4599026 56.0382445,11.1383617 53.9015109,15.1513256 C52.5452733,17.6984527 57.3106957,15.9989323 68.197778,10.0527644 C68.5630335,9.85327376 69.0529993,9.45928024 69.6676753,8.87078381 Z" id="Path-3" fill="#032660"></path>
                        <path d="M63.4088877,47.999081 C52.8635935,51.7138071 46.2759266,58.2611039 43.6458869,67.6409714 C39.7008273,81.7107726 44.3833705,99.1261161 43.96875,104.473772 C43.6923363,108.038876 42.6145833,119.645275 40.7354911,139.292969 L39.8818814,158.480564 L89.5811534,158.626711 L88.7589286,139.292969 C85.9505208,127.845424 84.8736979,118.824405 85.5284598,112.229911 C86.1832217,105.635417 88.7051711,96.2831101 93.094308,84.1729911 C94.2442336,64.1610863 92.4570313,53.1958705 87.7327009,51.2773438 C83.0083705,49.358817 80.3955381,47.7566165 79.8942037,46.4707423 L63.4088877,47.999081 Z" id="Path-5" stroke="#BDDFF7" fill="#FFFFFF"></path>
                        <path d="M49.9051335,102.835327 C49.0702574,116.236431 48.6745101,124.10283 48.7178918,126.434522 C48.7829643,129.932059 50.0207103,139.09207 51.1450928,139.243906 C52.2694753,139.395742 55.5868064,122.81038 55.532358,119.767907 C55.496059,117.739592 53.6203175,112.095399 49.9051335,102.835327 Z" id="Path-15" fill="#E7F5FF"></path>
                        <path d="M69.6295072,8.94786659 C59.1467348,10.2482472 53.4615885,13.3245693 52.5740685,18.1768329 C51.2427885,25.4552284 53.9375,42.9325421 62.7489483,43.1080228 C63.8917668,43.1225946 64.6011518,43.1225946 64.8771034,43.1080228 L64.8771034,46.1858474 C60.0156364,52.2731839 57.446497,56.5114168 57.1696851,58.900546 C56.7544673,62.4842399 65.4885788,65.8832386 70.1749051,63.570258 C74.8612313,61.2572775 80.7792273,51.24733 80.8462381,49.0935693 C80.913249,46.9398087 76.8219898,39.8348629 77.0281449,33.0316042 C77.0752502,31.4770986 77.0752502,30.1271446 77.0281449,28.9817422 C79.3769384,28.331202 80.5339364,26.4218554 80.4991388,23.2537025 C80.5980859,21.3688158 80.0527692,20.535565 78.8631889,20.75395 L76.7054131,21.9879735 C72.8575142,18.8770166 70.2885558,14.704834 69.6295072,8.94786659 Z" id="Path-4" fill="#FDE1D1"></path>
                        <path d="M64.8736115,46.1829529 C70.3621613,43.5506323 73.9112287,39.8229813 75.5208136,35 C72.5724675,38.1262202 68.2746578,42.143917 64.8723602,43.1110535 C64.876358,44.2287598 64.8767751,45.2527262 64.8736115,46.1829529 Z" id="Path-68" fill="#FFCFB4"></path>
                        <g id="Group-53" transform="translate(51.000000, 20.000000)">
                            <circle id="Oval-42" fill="#012A3B" cx="4" cy="5" r="1"></circle>
                            <circle id="Oval-42-Copy" fill="#012A3B" cx="15" cy="4" r="1"></circle>
                            <polyline id="Path-64" stroke="#F69B87" stroke-width="0.8" stroke-linecap="round" stroke-linejoin="round" points="8.34033822 5 7.14983572 11.409216 7 12.215875 9.79361696 12.776979"></polyline>
                            <path d="M7.12612213,16.9616576 C9.09685548,17.9508829 11.1403641,17.5568693 13.2566479,15.7796166" id="Path-65" stroke="#F2849A" stroke-linecap="round" stroke-linejoin="round"></path>
                            <path d="M5.24434235,1.05690102 C2.75602615,0.798711775 1.06625927,1.14492251 0.175041696,2.09553322" id="Path-66" stroke="#012A3B" stroke-linecap="round" stroke-linejoin="round"></path>
                            <path d="M12.6567344,0.93961025 C14.81262,-0.131068607 16.7934773,0.0479653914 18.5993065,1.47671224" id="Path-67" stroke="#012A3B" stroke-linecap="round" stroke-linejoin="round"></path>
                        </g>
                        <path d="M56.2271651,58.3539477 C59.632762,61.6371934 64.9613777,62.4758113 72.2130121,60.8698014 C69.9005089,64.2134373 63.4784387,72.1461558 52.9468014,84.6679569 L56.2271651,58.3539477 Z" id="Path-18" fill="#1F75EE"></path>
                        <polygon id="Path-48" stroke="#979797" points="77.4851074 127.984619 73.9047852 130.199219 77.9714355 137.664062 85.0935059 134.999268"></polygon>
                        <g id="Group-6" transform="translate(40.000000, 46.000000)" stroke="#005FE4" stroke-linecap="round" stroke-linejoin="round" stroke-width="2">
                            <path d="M20.2954545,6.13671875 C11.9265092,11.5669922 10.723473,21.3282121 9,35.6295793" id="Path-63"></path>
                        </g>
                        <path d="M62.0432327,49.7564539 C57.4097929,62.1364434 55.0470746,70.8428859 54.9550781,75.8757813 C54.8630816,80.9086766 53.4254514,86.7848485 50.6421875,93.5042969 C51.5449714,83.637825 51.7226381,76.3655355 51.1751876,71.6874285 C50.3540119,64.6702678 50.5843975,65.2427661 50.4773662,63.0849854 C50.370335,60.9272046 55.9111775,58.720197 55.6710937,57.6824219 C55.43101,56.6446468 52.1035156,57.5773438 53.4327899,55.9055615 C54.3189728,54.79104 57.1891204,52.7413374 62.0432327,49.7564539 Z" id="Path-49" stroke="#BDDFF7" fill="#FFFFFF"></path>
                        <path d="M78.4765625,50.7142857 C63.25,66.4337798 54.4188988,77.8986235 51.9832589,85.108817 C49.547619,92.3190104 49.2836978,110.380449 51.191495,139.293132 L51.4974364,158.502598 L89.5833333,158.519965 L88.7589286,139.292969 C85.9505208,127.845424 84.8736979,118.824405 85.5284598,112.229911 C86.1832217,105.635417 88.7051711,96.2831101 93.094308,84.1729911 C94.2442336,64.1610863 92.4570313,53.1958705 87.7327009,51.2773438 C83.0083705,49.358817 80.0723586,46.7834821 78.9246652,43.5513393 L78.4765625,50.7142857 Z" id="Path-5" stroke="#BDDFF7" fill="#FFFFFF"></path>
                        <path d="M52.8775745,86.9603953 C61.8041419,78.0304294 68.3511296,72.5097964 72.5185376,70.3984964 C78.7696497,67.2315463 79.3942307,64.987092 79.4152336,63.449599 C79.4362365,61.912106 78.8024794,59.5718133 78.3345025,58.397079 C77.8665255,57.2223446 80.9688356,58.5002582 81.4031672,58.0000632 C81.6927216,57.6665999 81.6470454,56.7676219 81.2661386,55.3031292 C78.4680645,55.1125399 76.7399822,55.3859173 76.0818917,56.1232614 C75.094756,57.2292776 73.6353611,58.7535163 72.0326164,61.0540463 C70.4298718,63.3545763 67.3287851,66.461177 65.2417505,69.8847455 C63.8503941,72.1671245 59.7290021,77.8590078 52.8775745,86.9603953 Z" id="Path-19" fill="#E7F5FF"></path>
                        <path d="M92.3567697,85.6154532 C88.4757319,80.6008844 86.2806776,74.6940399 85.7716068,67.8949197 C85.0080006,57.6962393 95.8972466,80.3706959 94.3155857,83.0324722 C93.2611451,84.8069898 92.6082064,85.6679834 92.3567697,85.6154532 Z" id="Path-16" fill="#E7F5FF"></path>
                        <path d="M75.0837415,128.820585 L84.7363376,137.319824 C104.777998,122.437337 115.482259,112.945475 116.849121,108.844238 C118.899414,102.692383 102.231934,60.6074219 98.5761719,57.6352539 C96.1389974,55.6538086 90.8333333,52.8398438 82.6591797,49.1933594 C86.4700521,60.2223307 88.387207,67.2524414 88.4106445,70.2836914 C88.4458008,74.8305664 90.4438477,78.7041016 92.1088867,83.4233398 C93.7739258,88.1425781 103.213867,105.608887 100.702148,107.498535 C99.0276693,108.758301 90.4882003,115.865651 75.0837415,128.820585 Z" id="Path-47" stroke="#BDDFF7" fill="#FFFFFF"></path>
                        <polygon id="Path-7" stroke="#979797" fill="#FFFFFF" points="18.6562929 79 12 83.3243106 14.5189711 88.7767023 20.878131 82.6029945"></polygon>
                        <g id="工牌" transform="translate(60.000000, 72.000000)">
                            <rect id="Rectangle-72" fill="#8CD8FF" x="0" y="2" width="17" height="13" rx="2"></rect>
                            <rect id="Rectangle-72" fill="#FFFFFF" x="0" y="2" width="16" height="12" rx="2"></rect>
                            <rect id="Rectangle-74-Copy" fill="#D2EDFF" x="7" y="0" width="2" height="4"></rect>
                            <circle id="Oval-44" fill="#D2EDFF" cx="4" cy="7" r="2"></circle>
                            <rect id="Rectangle-73" fill="#D2EDFF" x="7" y="5" width="7" height="1"></rect>
                            <rect id="Rectangle-73-Copy" fill="#D2EDFF" x="7" y="7" width="7" height="1"></rect>
                            <rect id="Rectangle-73-Copy-2" fill="#D2EDFF" x="7" y="9" width="7" height="1"></rect>
                        </g>
                        <g id="听诊器" transform="translate(46.000000, 48.000000)">
                            <path d="M34.3500422,45.214219 C38.6010366,44.9524568 40.836431,42.7654631 41.0562256,38.6532379 C41.2760201,34.5410127 41.2760201,26.7445107 41.0562256,15.2637318 C40.1660195,13.1843378 38.6858911,12.0986142 36.6158403,12.0065609 C33.5107641,11.8684809 30.0491154,13.8769586 28.2690095,21.1653294 C26.4889037,28.4537002 22.8620645,35.4121495 23.0040502,37.5309073 C23.1460359,39.6496652 23.9019146,43.0426186 27.3431156,44.1527723" id="Path-62" stroke="#9DD6FB" stroke-linecap="round" stroke-linejoin="round"></path>
                            <path d="M40.9228426,24.3082583 C40.9049835,22.5042073 40.8597746,19.4893652 40.787216,15.2637318 C39.8970099,13.1843378 38.4168815,12.0986142 36.3468307,12.0065609 C33.2417546,11.8684809 29.7801058,13.8769586 28,21.1653294" id="Path-62" stroke="#005FE4" stroke-width="2" stroke-linecap="round" stroke-linejoin="round"></path>
                            <path d="M36.5590199,12.7036028 C36.7142282,5.60985276 36.605374,1.58146734 36.2324574,0.618446511" id="Path-63" stroke="#005FE4" stroke-width="2" stroke-linecap="round" stroke-linejoin="round"></path>
                            <path d="M3,35.6915374 C4.65685425,35.6915374 6,34.3483917 6,32.6915374 C6,31.0346832 5.02642968,29 3.36957543,29 C1.71272118,29 0,31.0346832 0,32.6915374 C0,34.3483917 1.34314575,35.6915374 3,35.6915374 Z" id="Oval-41" fill="#005FE4"></path>
                            <path d="M33.2378035,43.0314883 C34.2859247,43.3517603 34.9960831,43.8774291 34.5751804,44.6546746 C34.1542777,45.4319201 33.3777215,45.9950382 32.4424078,45.4610984 C31.507094,44.9271586 32.1896824,42.7112163 33.2378035,43.0314883 Z" id="Path-61" stroke="#005FE4" fill="#005FE4"></path>
                            <path d="M28.2378035,43.0314883 C29.2859247,43.3517603 29.9960831,43.8774291 29.5751804,44.6546746 C29.1542777,45.4319201 28.3777215,45.9950382 27.4424078,45.4610984 C26.507094,44.9271586 27.1896824,42.7112163 28.2378035,43.0314883 Z" id="Path-61-Copy" stroke="#005FE4" fill="#005FE4" transform="translate(28.349170, 44.335536) scale(-1, 1) translate(-28.349170, -44.335536) "></path>
                        </g>
                        <path d="M78.4765625,50.7142857 C63.25,66.4337798 54.4188988,77.8986235 51.9832589,85.108817 C51.4756843,86.6113836 50.9230729,89.062429 51.3563058,88.4013672 C70.562221,64.3364955 76.4485212,67.484096 77.695731,64.0323661 C78.4796317,62.2212612 76.0901583,58.9707787 77.0965402,56.7988281 C77.358817,56.3888114 81.7759487,57.3063616 81.7756696,55.9241071 C82.2072173,53.2864583 81.2568824,49.1622024 78.9246652,43.5513393 L78.4765625,50.7142857 Z" id="Path-5" stroke="#BDDFF7" fill="#FFFFFF"></path>
                        <path d="" id="Path-17" stroke="#979797"></path>
                    </g>
                </g>
                <path d="" id="Path-50" stroke="#979797"></path>
                <path d="M26.9055572,151.580729 C32.4799775,159.955542 46.4576366,161.351418 67.5156517,148.377585 C76.0374197,142.320502 101.628037,108.0026 136.414417,112.131004 C171.200796,116.259407 201.078772,137.053575 225,153.277796 C224.99742,163.311221 224.985677,172.551956 224.964771,181 C207.100512,170.26093 190.869368,160.737134 176.27134,152.42861 C154.374298,139.965824 145.617195,133.196646 124.518465,133.334346 C110.452645,133.426146 91.5427085,138.653237 67.7886557,149.015619 C45.3000891,171.043802 27.0224822,178.148484 12.9558351,170.329662 C5.09686396,165.647218 0.10692643,162.485231 0.000837252571,135.419666 C-0.0377498629,125.575287 1.24499123,118.014317 6.44082693,102.460889 C8.4980661,96.3026645 9.75224499,91.6376086 13.2189568,88.6938372 C16.6856686,85.7500657 16.1105545,84.5743121 23.0246642,83.1194398 C26.129924,82.4660286 35.7700213,84.4935467 51.9449564,89.2019939 C44.6260466,95.1848797 39.6447614,99.6256152 37.001101,102.5242 C26.7081459,118.223817 21.331137,143.205915 26.9055572,151.580729 Z" id="Path-57" fill="#08C7DC" transform="translate(112.500000, 132.000000) scale(-1, 1) translate(-112.500000, -132.000000) "></path>
                <path d="M218,82 C213.193162,83.3814188 213.170988,87.0593414 217.933477,93.033768 C213.189793,92.8230267 207.211968,94.8117707 200,99 C201.409343,94.4249288 203.148381,90.7015279 205.217114,87.8297972 C207.285847,84.9580666 211.546809,83.0148008 218,82 Z" id="Path-58" fill="#FFFFFF" transform="translate(209.000000, 90.500000) scale(-1, 1) translate(-209.000000, -90.500000) "></path>
                <path d="M190.524251,100.055152 C190.146454,101.107629 189.498915,101.848644 188.581635,102.278196 C187.205714,102.922524 184.614716,104.52952 185.048311,107.291651 C185.481907,110.053782 186.206594,115.8364 189.275487,114.898175 C192.34438,113.959951 195.005461,109.796993 194.999992,107.349177 C194.994522,104.901361 194.200422,103.179001 193.091708,101.448193 C192.352566,100.294321 191.496747,99.8299741 190.524251,100.055152 Z" id="Path-59" fill="#FFBB88" transform="translate(190.000000, 107.500000) scale(-1, 1) rotate(25.000000) translate(-190.000000, -107.500000) "></path>
                <polygon id="Path-60" stroke="#BDDFF7" fill="#FFFFFF" points="252 154.559246 254.076202 152 269 164.842959 267.550437 166"></polygon>
                <g id="Group-54" transform="translate(299.000000, 132.000000)" fill="url(#linearGradient-1)">
                    <path d="M14,34.0858248 C14.9895705,31.2573109 16.3988131,29.7465529 18.2277278,29.5535509 C20.9710997,29.2640478 24.8368719,27.3059875 25.818972,26 C21.7088261,26.6959741 22.1202091,26.5958913 20.732866,26.5753222 C17.2095037,27.4019769 14.965215,29.9054778 14,34.0858248 Z" id="Path-69"></path>
                    <path d="M14.1644984,32.8996573 C14.1994376,29.9217342 15.2517238,27.5579146 17.321357,25.8081985 C18.3047252,24.9768361 19.7566658,24.9214099 19.8404029,24.9227323 C21.4581486,24.9482813 22.7784846,24.8076008 23.8014109,24.5006907 C25.8947116,23.6175325 27.3748363,23.0279195 28.2417848,22.7318516 C29.5422076,22.2877498 26.8461973,21.356392 24.5033107,21.5872992 C17.6465163,22.1143815 14.2002456,25.8851676 14.1644984,32.8996573 Z" id="Path-70"></path>
                    <path d="M0.260633996,28.1915019 C1.85358217,27.1972378 3.39183616,26.7677354 4.87539596,26.9029948 C7.10073565,27.105884 11.1805788,28.6736052 12.6107862,32.7386342 C9.78531333,30.085134 8.00842305,29.6526445 6.43571012,29.8086666 C5.38723482,29.9126813 3.32887612,29.3736264 0.260633996,28.1915019 Z" id="Path-71"></path>
                    <path d="M3.07177585,11.5320486 C5.12675307,13.6683962 6.22638004,15.2174387 6.37065677,16.1791762 C6.58707186,17.6217825 8.01840649,16.8380829 8.01019431,18.2362467 C8.00198213,19.6344106 7.2179605,22.066504 9.05958207,23.8385636 C10.9012036,25.6106232 12.198406,25.7795364 12.330928,28.6926059 C10.6335832,26.806542 9.03816599,25.7779262 7.70135194,25.5296285 C6.36453789,25.2813308 5.51787826,24.1567453 5.25202907,21.5455942 C4.98617987,18.934443 3.94323304,19.0226837 3.38641505,16.9008819 C3.01520305,15.4863474 2.91032332,13.6967363 3.07177585,11.5320486 Z" id="Path-72"></path>
                    <path d="M22.2346558,6.81165547 C22.0336989,9.89342353 21.4832145,12.0208075 20.5832026,13.1938073 C19.2331846,14.9533071 19.5128818,16.8293876 19.7003127,17.7240322 C19.8877437,18.6186767 20.2051202,19.4952866 18.9125876,20.7823445 C17.6200549,22.0694024 14.634847,24.8064736 14.1722276,28.7826178 C13.6801409,24.7871509 13.5635601,21.9280241 14.384295,20.7823445 C15.2050299,19.6366649 16.5226822,18.0533245 16.4537643,15.4363765 C16.3848464,12.8194286 16.7991589,11.6863088 18.4362811,10.894236 C19.5276959,10.3661875 20.7938208,9.00532728 22.2346558,6.81165547 Z" id="Path-73"></path>
                    <path d="M8.40502303,8.43170921 C10.4188857,10.3341438 11.4285007,12.0524217 11.4338682,13.5865428 C11.4419193,15.8877244 13.9720758,17.1894354 13.1943341,18.9767921 C12.4165923,20.7641489 11.4498094,22.2019245 12.1821427,24.0034513 C12.9144759,25.8049781 12.8358966,27.6077931 12.7082052,28.4554188 C12.4782642,25.9495769 9.40304441,23.4577439 8.74735821,22.5735658 C8.09167201,21.6893878 9.95809115,19.7991373 9.65601175,17.1581969 C9.35393235,14.5172565 8.39455653,14.9483154 8.40502303,12.4228286 C8.4120007,10.7391707 8.4120007,9.40879758 8.40502303,8.43170921 Z" id="Path-74"></path>
                    <path d="M20.4825631,5.10400515 C19.7009568,6.13562668 19.1152083,6.95104783 18.7253177,7.55026858 C18.1404816,8.44909971 17.8474195,10.5501295 17.8989469,11.1502628 C17.9504743,11.750396 17.0456854,14.6244979 17.0745085,15.7487614 C17.1033316,16.8730249 17.4979993,18.5599032 16.4808162,20.402652 C15.4636331,22.2454007 14.9697751,23.0369904 14.7259861,24.2095609 C14.4821971,25.3821313 15.9331765,19.400444 15.3080847,17.2673706 C14.6829929,15.1342971 13.5339319,13.5726948 13.9709486,11.9099699 C14.4079654,10.247245 15.6992099,9.71345335 16.1510408,8.08116185 C16.4522614,6.99296752 17.8961022,6.00058195 20.4825631,5.10400515 Z" id="Path-75"></path>
                    <path d="M11.6528596,0.19457085 C12.9489885,3.24617391 13.5941545,5.53946537 13.5883577,7.07444522 C13.5796624,9.376915 13.2597095,13.3836536 13.5883577,14.8405909 C13.9170059,16.2975282 14.2928339,19.1946564 14.1235986,20.1609562 C13.9543633,21.1272561 12.3544374,16.3471233 12.0808591,13.8535191 C11.8072808,11.3599149 11.7198452,10.8055122 11.2826674,8.74473818 C10.8454896,6.68396413 10.2666115,5.53908965 10.8891269,3.89520449 C11.3041372,2.79928105 11.5587148,1.5657365 11.6528596,0.19457085 Z" id="Path-76"></path>
                    <rect id="Rectangle-71" opacity="0.310881696" x="10" y="34" width="7" height="18"></rect>
                    <ellipse id="Oval-43" opacity="0.637946429" cx="13.5" cy="34" rx="3.5" ry="2"></ellipse>
                </g>
            </g>
        </g>
    </g>
</svg>